<svg xmlns="http://www.w3.org/2000/svg" viewBox="0 0 800 600" preserveAspectRatio="xMidYMid slice">
  <defs>
    <linearGradient id="g1" x1="0" y1="0" x2="1" y2="1">
      <stop offset="0%" stop-color="#0B3D91"/>
      <stop offset="100%" stop-color="#071F4D"/>
    </linearGradient>
  </defs>
  <rect width="800" height="600" fill="url(#g1)"/>
  <g opacity="0.15" fill="#ffffff">
    <circle cx="80" cy="80" r="2"/><circle cx="140" cy="60" r="2"/><circle cx="200" cy="100" r="2"/>
    <circle cx="650" cy="90" r="2"/><circle cx="700" cy="130" r="2"/><circle cx="600" cy="150" r="2"/>
  </g>
  <path d="M60 480 C 260 360, 540 360, 740 150" stroke="#D4AF37" stroke-width="2" stroke-dasharray="8 8" fill="none" opacity="0.6"/>
  <circle cx="60" cy="480" r="8" fill="#D4AF37"/>
  <circle cx="740" cy="150" r="6" fill="#ffffff"/>
  <g transform="translate(330,260)">
    <rect x="-90" y="20" width="180" height="120" rx="10" fill="#0E2C63" stroke="#D4AF37" stroke-width="1.5" opacity="0.9"/>
    <rect x="-60" y="45" width="50" height="40" rx="4" fill="#123B7A"/>
    <rect x="10" y="45" width="50" height="40" rx="4" fill="#123B7A"/>
    <rect x="-60" y="95" width="120" height="12" rx="3" fill="#D4AF37" opacity="0.8"/>
    <circle cx="0" cy="-10" r="34" fill="#FFFFFF" opacity="0.08"/>
    <path d="M-18 -10 L28 -22 L40 -10 L28 2 Z" fill="#FFFFFF"/>
    <path d="M0 -10 L-14 -34 L-6 -34 L10 -12 Z" fill="#FFFFFF"/>
    <path d="M0 -10 L-14 14 L-6 14 L10 -8 Z" fill="#FFFFFF"/>
  </g>
</svg>
